####
#
# OBJ File Generated by Meshlab
#
####
# Object NACA0018emptyscaled.obj
#
# Vertices: 142
# Faces: 142
#
####
vn -0.7746223 0.0000000 -0.6324242
v 0.2000000 -0.9999062 0.0003780
vn -0.7746223 0.0000000 0.6324242
v 0.2000000 0.0000000 -0.0003780
vn -0.7746196 0.0000000 0.6324275
v 0.2000000 -0.9999062 -0.0003780
vn -0.7746196 0.0000000 -0.6324275
v 0.2000000 0.0000000 0.0003780
vn 1.0000000 0.0000000 -0.0000005
v 0.0000000 0.0000000 0.0000000
vn 0.9794546 0.0000000 0.2016646
v 0.0001452 -0.9999062 -0.0013879
vn 0.9794549 0.0000000 0.2016633
v 0.0001452 0.0000000 -0.0013879
vn 0.9255447 0.0000000 0.3786384
v 0.0005639 -0.9999062 -0.0027325
vn 0.9255449 0.0000000 0.3786379
v 0.0005639 0.0000000 -0.0027325
vn 0.8579630 0.0000000 0.5137116
v 0.0012133 -0.9999062 -0.0039960
vn 0.8579633 0.0000000 0.5137112
v 0.0012133 0.0000000 -0.0039960
vn 0.7948429 0.0000000 0.6068153
v 0.0018188 -0.9999062 -0.0048730
vn 0.7948434 0.0000000 0.6068147
v 0.0018188 0.0000000 -0.0048730
vn 0.7298730 0.0000000 0.6835828
v 0.0025000 -0.9999062 -0.0056820
vn 0.7298734 0.0000000 0.6835825
v 0.0025000 0.0000000 -0.0056820
vn 0.6538960 0.0000000 0.7565844
v 0.0037002 -0.9999062 -0.0068350
vn 0.6538964 0.0000000 0.7565841
v 0.0037002 0.0000000 -0.0068350
vn 0.5725303 0.0000000 0.8198836
v 0.0050000 -0.9999062 -0.0078440
vn 0.5725306 0.0000000 0.8198833
v 0.0050000 0.0000000 -0.0078440
vn 0.4913766 0.0000000 0.8709472
v 0.0074281 -0.9999062 -0.0093632
vn 0.4913768 0.0000000 0.8709471
v 0.0074281 0.0000000 -0.0093632
vn 0.4193983 0.0000000 0.9078023
v 0.0100000 -0.9999062 -0.0106640
vn 0.4193986 0.0000000 0.9078022
v 0.0100000 0.0000000 -0.0106640
vn 0.3610404 0.0000000 0.9325502
v 0.0124766 -0.9999062 -0.0117032
vn 0.3610406 0.0000000 0.9325501
v 0.0124766 0.0000000 -0.0117032
vn 0.3148111 0.0000000 0.9491544
v 0.0150000 -0.9999062 -0.0126000
vn 0.3148110 0.0000000 0.9491544
v 0.0150000 0.0000000 -0.0126000
vn 0.2781808 0.0000000 0.9605287
v 0.0174860 -0.9999062 -0.0133664
vn 0.2781807 0.0000000 0.9605288
v 0.0174860 0.0000000 -0.0133664
vn 0.2403642 0.0000000 0.9706828
v 0.0200000 -0.9999062 -0.0140480
vn 0.2403642 0.0000000 0.9706828
v 0.0200000 0.0000000 -0.0140480
vn 0.1949747 0.0000000 0.9808083
v 0.0249776 -0.9999062 -0.0151649
vn 0.1949748 0.0000000 0.9808083
v 0.0249776 0.0000000 -0.0151649
vn 0.1517924 0.0000000 0.9884124
v 0.0300000 -0.9999062 -0.0160360
vn 0.1517925 0.0000000 0.9884124
v 0.0300000 0.0000000 -0.0160360
vn 0.1167971 0.0000000 0.9931558
v 0.0349900 -0.9999062 -0.0167037
vn 0.1167972 0.0000000 0.9931558
v 0.0349900 0.0000000 -0.0167037
vn 0.0870888 0.0000000 0.9962006
v 0.0400000 -0.9999062 -0.0172120
vn 0.0870889 0.0000000 0.9962006
v 0.0400000 0.0000000 -0.0172120
vn 0.0610848 0.0000000 0.9981326
v 0.0449966 -0.9999062 -0.0175789
vn 0.0610848 0.0000000 0.9981326
v 0.0449966 0.0000000 -0.0175789
vn 0.0382859 0.0000000 0.9992669
v 0.0500000 -0.9999062 -0.0178240
vn 0.0382860 0.0000000 0.9992669
v 0.0500000 0.0000000 -0.0178240
vn 0.0181974 0.0000000 0.9998344
v 0.0549990 -0.9999062 -0.0179622
vn 0.0181974 0.0000000 0.9998344
v 0.0549990 0.0000000 -0.0179622
vn -0.0035635 0.0000000 0.9999937
v 0.0600000 -0.9999062 -0.0180060
vn -0.0035635 0.0000000 0.9999937
v 0.0600000 0.0000000 -0.0180060
vn -0.0297869 0.0000000 0.9995563
v 0.0700042 -0.9999062 -0.0178471
vn -0.0297869 0.0000000 0.9995563
v 0.0700042 0.0000000 -0.0178471
vn -0.0551500 0.0000000 0.9984781
v 0.0800000 -0.9999062 -0.0174100
vn -0.0551500 0.0000000 0.9984781
v 0.0800000 0.0000000 -0.0174100
vn -0.0761780 0.0000000 0.9970942
v 0.0900074 -0.9999062 -0.0167419
vn -0.0761780 0.0000000 0.9970942
v 0.0900074 0.0000000 -0.0167419
vn -0.0938551 0.0000000 0.9955859
v 0.1000000 -0.9999062 -0.0158820
vn -0.0938551 0.0000000 0.9955859
v 0.1000000 0.0000000 -0.0158820
vn -0.1089477 0.0000000 0.9940475
v 0.1100077 -0.9999062 -0.0148563
vn -0.1089477 0.0000000 0.9940475
v 0.1100077 0.0000000 -0.0148563
vn -0.1220581 0.0000000 0.9925230
v 0.1200000 -0.9999062 -0.0136900
vn -0.1220581 0.0000000 0.9925230
v 0.1200000 0.0000000 -0.0136900
vn -0.1336890 0.0000000 0.9910234
v 0.1300075 -0.9999062 -0.0123965
vn -0.1336890 0.0000000 0.9910234
v 0.1300075 0.0000000 -0.0123965
vn -0.1442800 0.0000000 0.9895369
v 0.1400000 -0.9999062 -0.0109920
vn -0.1442799 0.0000000 0.9895369
v 0.1400000 0.0000000 -0.0109920
vn -0.1542322 0.0000000 0.9880347
v 0.1500077 -0.9999062 -0.0094802
vn -0.1542322 0.0000000 0.9880347
v 0.1500077 0.0000000 -0.0094802
vn -0.1639044 0.0000000 0.9864762
v 0.1600000 -0.9999062 -0.0078700
vn -0.1639044 0.0000000 0.9864762
v 0.1600000 0.0000000 -0.0078700
vn -0.1736223 0.0000000 0.9848123
v 0.1700088 -0.9999062 -0.0061569
vn -0.1736223 0.0000000 0.9848123
v 0.1700088 0.0000000 -0.0061569
vn -0.1837353 0.0000000 0.9829758
v 0.1800000 -0.9999062 -0.0043440
vn -0.1837353 0.0000000 0.9829758
v 0.1800000 0.0000000 -0.0043440
vn -0.1945062 0.0000000 0.9809013
v 0.1900000 -0.9999062 -0.0024200
vn -0.1945063 0.0000000 0.9809013
v 0.1900000 0.0000000 -0.0024200
vn 1.0000000 0.0000000 0.0000005
v 0.0000000 -0.9999062 0.0000000
vn 0.9794546 0.0000000 -0.2016646
v 0.0001452 0.0000000 0.0013879
vn 0.9794549 0.0000000 -0.2016633
v 0.0001452 -0.9999062 0.0013879
vn 0.9255447 0.0000000 -0.3786384
v 0.0005639 0.0000000 0.0027325
vn 0.9255449 0.0000000 -0.3786379
v 0.0005639 -0.9999062 0.0027325
vn 0.8579630 0.0000000 -0.5137116
v 0.0012133 0.0000000 0.0039960
vn 0.8579633 0.0000000 -0.5137112
v 0.0012133 -0.9999062 0.0039960
vn 0.7948429 0.0000000 -0.6068153
v 0.0018188 0.0000000 0.0048730
vn 0.7948434 0.0000000 -0.6068147
v 0.0018188 -0.9999062 0.0048730
vn 0.7298730 0.0000000 -0.6835828
v 0.0025000 0.0000000 0.0056820
vn 0.7298734 0.0000000 -0.6835825
v 0.0025000 -0.9999062 0.0056820
vn 0.6538960 0.0000000 -0.7565844
v 0.0037002 0.0000000 0.0068350
vn 0.6538964 0.0000000 -0.7565841
v 0.0037002 -0.9999062 0.0068350
vn 0.5725303 0.0000000 -0.8198836
v 0.0050000 0.0000000 0.0078440
vn 0.5725306 0.0000000 -0.8198833
v 0.0050000 -0.9999062 0.0078440
vn 0.4913766 0.0000000 -0.8709472
v 0.0074281 0.0000000 0.0093632
vn 0.4913768 0.0000000 -0.8709471
v 0.0074281 -0.9999062 0.0093632
vn 0.4193983 0.0000000 -0.9078023
v 0.0100000 0.0000000 0.0106640
vn 0.4193986 0.0000000 -0.9078022
v 0.0100000 -0.9999062 0.0106640
vn 0.3610404 0.0000000 -0.9325502
v 0.0124766 0.0000000 0.0117032
vn 0.3610406 0.0000000 -0.9325501
v 0.0124766 -0.9999062 0.0117032
vn 0.3148111 0.0000000 -0.9491544
v 0.0150000 0.0000000 0.0126000
vn 0.3148110 0.0000000 -0.9491544
v 0.0150000 -0.9999062 0.0126000
vn 0.2781808 0.0000000 -0.9605287
v 0.0174860 0.0000000 0.0133664
vn 0.2781807 0.0000000 -0.9605288
v 0.0174860 -0.9999062 0.0133664
vn 0.2403642 0.0000000 -0.9706828
v 0.0200000 0.0000000 0.0140480
vn 0.2403642 0.0000000 -0.9706828
v 0.0200000 -0.9999062 0.0140480
vn 0.1949747 0.0000000 -0.9808083
v 0.0249776 0.0000000 0.0151649
vn 0.1949748 0.0000000 -0.9808083
v 0.0249776 -0.9999062 0.0151649
vn 0.1517924 0.0000000 -0.9884124
v 0.0300000 0.0000000 0.0160360
vn 0.1517925 0.0000000 -0.9884124
v 0.0300000 -0.9999062 0.0160360
vn 0.1167971 0.0000000 -0.9931558
v 0.0349900 0.0000000 0.0167037
vn 0.1167972 0.0000000 -0.9931558
v 0.0349900 -0.9999062 0.0167037
vn 0.0870888 0.0000000 -0.9962006
v 0.0400000 0.0000000 0.0172120
vn 0.0870889 0.0000000 -0.9962006
v 0.0400000 -0.9999062 0.0172120
vn 0.0610848 0.0000000 -0.9981326
v 0.0449966 0.0000000 0.0175789
vn 0.0610848 0.0000000 -0.9981326
v 0.0449966 -0.9999062 0.0175789
vn 0.0382859 0.0000000 -0.9992669
v 0.0500000 0.0000000 0.0178240
vn 0.0382860 0.0000000 -0.9992669
v 0.0500000 -0.9999062 0.0178240
vn 0.0181974 0.0000000 -0.9998344
v 0.0549990 0.0000000 0.0179622
vn 0.0181974 0.0000000 -0.9998344
v 0.0549990 -0.9999062 0.0179622
vn -0.0035635 0.0000000 -0.9999937
v 0.0600000 0.0000000 0.0180060
vn -0.0035635 0.0000000 -0.9999937
v 0.0600000 -0.9999062 0.0180060
vn -0.0297869 0.0000000 -0.9995563
v 0.0700042 0.0000000 0.0178471
vn -0.0297869 0.0000000 -0.9995563
v 0.0700042 -0.9999062 0.0178471
vn -0.0551500 0.0000000 -0.9984781
v 0.0800000 0.0000000 0.0174100
vn -0.0551500 0.0000000 -0.9984781
v 0.0800000 -0.9999062 0.0174100
vn -0.0761780 0.0000000 -0.9970942
v 0.0900074 0.0000000 0.0167419
vn -0.0761780 0.0000000 -0.9970942
v 0.0900074 -0.9999062 0.0167419
vn -0.0938551 0.0000000 -0.9955859
v 0.1000000 0.0000000 0.0158820
vn -0.0938551 0.0000000 -0.9955859
v 0.1000000 -0.9999062 0.0158820
vn -0.1089477 0.0000000 -0.9940475
v 0.1100077 0.0000000 0.0148563
vn -0.1089477 0.0000000 -0.9940475
v 0.1100077 -0.9999062 0.0148563
vn -0.1220581 0.0000000 -0.9925230
v 0.1200000 0.0000000 0.0136900
vn -0.1220581 0.0000000 -0.9925230
v 0.1200000 -0.9999062 0.0136900
vn -0.1336890 0.0000000 -0.9910234
v 0.1300075 0.0000000 0.0123965
vn -0.1336890 0.0000000 -0.9910234
v 0.1300075 -0.9999062 0.0123965
vn -0.1442800 0.0000000 -0.9895369
v 0.1400000 0.0000000 0.0109920
vn -0.1442799 0.0000000 -0.9895369
v 0.1400000 -0.9999062 0.0109920
vn -0.1542322 0.0000000 -0.9880347
v 0.1500077 0.0000000 0.0094802
vn -0.1542322 0.0000000 -0.9880347
v 0.1500077 -0.9999062 0.0094802
vn -0.1639044 0.0000000 -0.9864762
v 0.1600000 0.0000000 0.0078700
vn -0.1639044 0.0000000 -0.9864762
v 0.1600000 -0.9999062 0.0078700
vn -0.1736223 0.0000000 -0.9848123
v 0.1700088 0.0000000 0.0061569
vn -0.1736223 0.0000000 -0.9848123
v 0.1700088 -0.9999062 0.0061569
vn -0.1837353 0.0000000 -0.9829758
v 0.1800000 0.0000000 0.0043440
vn -0.1837353 0.0000000 -0.9829758
v 0.1800000 -0.9999062 0.0043440
vn -0.1945062 0.0000000 -0.9809013
v 0.1900000 0.0000000 0.0024200
vn -0.1945063 0.0000000 -0.9809013
v 0.1900000 -0.9999062 0.0024200
# 142 vertices, 0 vertices normals

f 1//1 2//2 3//3
f 2//2 1//1 4//4
f 5//5 6//6 7//7
f 7//7 6//6 8//8
f 7//7 8//8 9//9
f 9//9 8//8 10//10
f 9//9 10//10 11//11
f 11//11 10//10 12//12
f 11//11 12//12 13//13
f 13//13 12//12 14//14
f 13//13 14//14 15//15
f 15//15 14//14 16//16
f 15//15 16//16 17//17
f 17//17 16//16 18//18
f 17//17 18//18 19//19
f 19//19 18//18 20//20
f 19//19 20//20 21//21
f 21//21 20//20 22//22
f 21//21 22//22 23//23
f 23//23 22//22 24//24
f 23//23 24//24 25//25
f 25//25 24//24 26//26
f 25//25 26//26 27//27
f 27//27 26//26 28//28
f 27//27 28//28 29//29
f 29//29 28//28 30//30
f 29//29 30//30 31//31
f 31//31 30//30 32//32
f 31//31 32//32 33//33
f 33//33 32//32 34//34
f 33//33 34//34 35//35
f 35//35 34//34 36//36
f 35//35 36//36 37//37
f 37//37 36//36 38//38
f 37//37 38//38 39//39
f 39//39 38//38 40//40
f 39//39 40//40 41//41
f 41//41 40//40 42//42
f 41//41 42//42 43//43
f 43//43 42//42 44//44
f 43//43 44//44 45//45
f 45//45 44//44 46//46
f 45//45 46//46 47//47
f 47//47 46//46 48//48
f 47//47 48//48 49//49
f 49//49 48//48 50//50
f 49//49 50//50 51//51
f 51//51 50//50 52//52
f 51//51 52//52 53//53
f 53//53 52//52 54//54
f 53//53 54//54 55//55
f 55//55 54//54 56//56
f 55//55 56//56 57//57
f 57//57 56//56 58//58
f 57//57 58//58 59//59
f 59//59 58//58 60//60
f 59//59 60//60 61//61
f 61//61 60//60 62//62
f 61//61 62//62 63//63
f 63//63 62//62 64//64
f 63//63 64//64 65//65
f 65//65 64//64 66//66
f 65//65 66//66 67//67
f 67//67 66//66 68//68
f 67//67 68//68 69//69
f 69//69 68//68 70//70
f 69//69 70//70 71//71
f 71//71 70//70 72//72
f 71//71 72//72 73//73
f 73//73 72//72 3//3
f 73//73 3//3 2//2
f 6//6 5//5 74//74
f 74//74 5//5 75//75
f 74//74 75//75 76//76
f 76//76 75//75 77//77
f 76//76 77//77 78//78
f 78//78 77//77 79//79
f 78//78 79//79 80//80
f 80//80 79//79 81//81
f 80//80 81//81 82//82
f 82//82 81//81 83//83
f 82//82 83//83 84//84
f 84//84 83//83 85//85
f 84//84 85//85 86//86
f 86//86 85//85 87//87
f 86//86 87//87 88//88
f 88//88 87//87 89//89
f 88//88 89//89 90//90
f 90//90 89//89 91//91
f 90//90 91//91 92//92
f 92//92 91//91 93//93
f 92//92 93//93 94//94
f 94//94 93//93 95//95
f 94//94 95//95 96//96
f 96//96 95//95 97//97
f 96//96 97//97 98//98
f 98//98 97//97 99//99
f 98//98 99//99 100//100
f 100//100 99//99 101//101
f 100//100 101//101 102//102
f 102//102 101//101 103//103
f 102//102 103//103 104//104
f 104//104 103//103 105//105
f 104//104 105//105 106//106
f 106//106 105//105 107//107
f 106//106 107//107 108//108
f 108//108 107//107 109//109
f 108//108 109//109 110//110
f 110//110 109//109 111//111
f 110//110 111//111 112//112
f 112//112 111//111 113//113
f 112//112 113//113 114//114
f 114//114 113//113 115//115
f 114//114 115//115 116//116
f 116//116 115//115 117//117
f 116//116 117//117 118//118
f 118//118 117//117 119//119
f 118//118 119//119 120//120
f 120//120 119//119 121//121
f 120//120 121//121 122//122
f 122//122 121//121 123//123
f 122//122 123//123 124//124
f 124//124 123//123 125//125
f 124//124 125//125 126//126
f 126//126 125//125 127//127
f 126//126 127//127 128//128
f 128//128 127//127 129//129
f 128//128 129//129 130//130
f 130//130 129//129 131//131
f 130//130 131//131 132//132
f 132//132 131//131 133//133
f 132//132 133//133 134//134
f 134//134 133//133 135//135
f 134//134 135//135 136//136
f 136//136 135//135 137//137
f 136//136 137//137 138//138
f 138//138 137//137 139//139
f 138//138 139//139 140//140
f 140//140 139//139 141//141
f 140//140 141//141 142//142
f 142//142 141//141 4//4
f 142//142 4//4 1//1
# 142 faces, 0 coords texture

# End of File
