solid ASCII
  facet normal 0.000000e+00 0.000000e+00 -1.000000e+00
    outer loop
      vertex   -2.000000e-01 3.600000e-02 -8.162500e-02
      vertex   0.000000e+00 3.600000e-02 -8.162500e-02
      vertex   -2.000000e-01 0.000000e+00 -8.162500e-02
    endloop
  endfacet
  facet normal 0.000000e+00 0.000000e+00 -1.000000e+00
    outer loop
      vertex   -2.000000e-01 0.000000e+00 -8.162500e-02
      vertex   0.000000e+00 3.600000e-02 -8.162500e-02
      vertex   0.000000e+00 0.000000e+00 -8.162500e-02
    endloop
  endfacet
  facet normal 1.000000e+00 0.000000e+00 0.000000e+00
    outer loop
      vertex   0.000000e+00 3.600000e-02 8.162500e-02
      vertex   0.000000e+00 0.000000e+00 8.162500e-02
      vertex   0.000000e+00 3.600000e-02 -8.162500e-02
    endloop
  endfacet
  facet normal 1.000000e+00 0.000000e+00 0.000000e+00
    outer loop
      vertex   0.000000e+00 3.600000e-02 -8.162500e-02
      vertex   0.000000e+00 0.000000e+00 8.162500e-02
      vertex   0.000000e+00 0.000000e+00 -8.162500e-02
    endloop
  endfacet
  facet normal -0.000000e+00 -1.000000e+00 -0.000000e+00
    outer loop
      vertex   0.000000e+00 0.000000e+00 8.162500e-02
      vertex   -2.000000e-01 0.000000e+00 8.162500e-02
      vertex   0.000000e+00 0.000000e+00 -8.162500e-02
    endloop
  endfacet
  facet normal 0.000000e+00 -1.000000e+00 0.000000e+00
    outer loop
      vertex   0.000000e+00 0.000000e+00 -8.162500e-02
      vertex   -2.000000e-01 0.000000e+00 8.162500e-02
      vertex   -2.000000e-01 0.000000e+00 -8.162500e-02
    endloop
  endfacet
  facet normal -1.000000e+00 0.000000e+00 0.000000e+00
    outer loop
      vertex   -2.000000e-01 0.000000e+00 8.162500e-02
      vertex   -2.000000e-01 3.600000e-02 8.162500e-02
      vertex   -2.000000e-01 0.000000e+00 -8.162500e-02
    endloop
  endfacet
  facet normal -1.000000e+00 0.000000e+00 0.000000e+00
    outer loop
      vertex   -2.000000e-01 0.000000e+00 -8.162500e-02
      vertex   -2.000000e-01 3.600000e-02 8.162500e-02
      vertex   -2.000000e-01 3.600000e-02 -8.162500e-02
    endloop
  endfacet
  facet normal -0.000000e+00 1.000000e+00 0.000000e+00
    outer loop
      vertex   -2.000000e-01 3.600000e-02 8.162500e-02
      vertex   0.000000e+00 3.600000e-02 8.162500e-02
      vertex   -2.000000e-01 3.600000e-02 -8.162500e-02
    endloop
  endfacet
  facet normal 0.000000e+00 1.000000e+00 0.000000e+00
    outer loop
      vertex   -2.000000e-01 3.600000e-02 -8.162500e-02
      vertex   0.000000e+00 3.600000e-02 8.162500e-02
      vertex   0.000000e+00 3.600000e-02 -8.162500e-02
    endloop
  endfacet
  facet normal 0.000000e+00 0.000000e+00 1.000000e+00
    outer loop
      vertex   0.000000e+00 3.600000e-02 8.162500e-02
      vertex   -2.000000e-01 3.600000e-02 8.162500e-02
      vertex   0.000000e+00 0.000000e+00 8.162500e-02
    endloop
  endfacet
  facet normal 0.000000e+00 0.000000e+00 1.000000e+00
    outer loop
      vertex   0.000000e+00 0.000000e+00 8.162500e-02
      vertex   -2.000000e-01 3.600000e-02 8.162500e-02
      vertex   -2.000000e-01 0.000000e+00 8.162500e-02
    endloop
  endfacet
endsolid
